<svg width="24" height="24" viewBox="0 0 24 24" fill="none" xmlns="http://www.w3.org/2000/svg">
<path fill-rule="evenodd" clip-rule="evenodd" d="M3.2 24L2.96533 23.8944L2.77333 23.7624L2.60267 23.5776L2.47467 23.3663L2.368 23.1023L2.304 22.8119L2.28267 22.3102V21.1749L2.26133 20.4092L2.24 19.7756L2.19733 19.1683L2.15467 18.6667L2.09067 17.9802L2.00533 17.2673L1.87733 16.5545L1.77067 15.9736L1.64267 15.4984L1.472 14.9967L1.30133 14.5215L1.06667 14.0726L0.874667 13.7294L0.682667 13.4389L0.448 13.1749L0.256 12.9109L0.106667 12.6469L0.0213333 12.3828L0 12.0924V11.7756L0.064 11.5116L0.192 11.2211L0.554667 10.7459L0.938667 10.2442L1.088 9.9802L1.25867 9.63696L1.408 9.29373L1.536 8.9769L1.664 8.60726L1.792 8.07921L1.87733 7.70957L1.96267 7.20792L2.048 6.57426L2.112 5.9934L2.15467 5.62376L2.19733 5.06931L2.21867 4.46205L2.24 3.82838L2.26133 3.22112L2.28267 2.53465V1.63696V1.34653L2.304 1.10891L2.368 0.871287L2.45333 0.633663L2.56 0.475248L2.688 0.316832L2.83733 0.184818L3.02933 0.0792079L3.22133 0H3.43467H20.6293L20.8853 0.0264026L21.0987 0.132013L21.248 0.264026L21.376 0.422442L21.504 0.633663L21.5893 0.818482L21.6533 1.05611L21.696 1.37294V1.92739L21.7173 2.93069L21.76 3.85479L21.7813 4.69967L21.8667 5.88779L21.9093 6.25743L21.9733 6.73267L22.016 7.10231L22.1013 7.55116L22.208 8.05281L22.2933 8.42244L22.4213 8.81848L22.592 9.29373L22.7627 9.71617L22.9547 10.0594L23.168 10.4026L23.3813 10.7195L23.616 11.0363L23.8293 11.3531L23.9573 11.67L24 12.066L23.9787 12.3564L23.8933 12.5941L23.7227 12.8845L23.4667 13.2277L23.296 13.4653L23.0827 13.7822L22.9547 14.0198L22.784 14.3102L22.6773 14.5743L22.5707 14.8383L22.464 15.1287L22.3787 15.3927L22.272 15.7888L22.1867 16.132L22.1227 16.4752L22.0373 16.8449L21.9733 17.2673L21.9307 17.6634L21.888 18.0858L21.8453 18.5347L21.8027 19.0099L21.7813 19.2739L21.76 19.7228L21.7387 20.2244L21.7173 20.9373L21.696 21.4653V22.363V22.7063L21.6747 22.9439L21.6107 23.2079L21.504 23.4191L21.376 23.604L21.184 23.7888L21.0133 23.8944L20.8 23.9736L3.2 24ZM4.39467 20.4884V21.3069H19.584V20.2244L19.6267 19.4587L19.712 18.3762L19.7973 17.6106L19.904 16.8449L19.9893 16.2376L20.096 15.6304L20.2453 14.9703L20.3733 14.4686L20.5653 13.8878L20.7573 13.3861L20.992 12.8845L21.184 12.5149L21.504 12.0132L21.1413 11.4323L20.928 11.0363L20.7147 10.5347L20.544 10.0594L20.4373 9.76898L20.2667 9.13531L20.0747 8.42244L19.9467 7.76238L19.8613 7.10231L19.7973 6.49505L19.7333 5.94059L19.6693 5.22772L19.6053 4.40924L19.584 3.88119V3.30033V2.64026H4.37333V3.72277L4.33067 4.72607L4.26667 5.54455L4.18133 6.33663L4.096 7.10231L3.98933 7.78878L3.88267 8.50165L3.75467 9.0297L3.584 9.63696L3.34933 10.297L3.11467 10.8515L2.816 11.4587L2.47467 12.0132L2.70933 12.4092L2.944 12.8053L3.2 13.3597L3.43467 13.9934L3.69067 14.7855L3.92533 15.8944L4.096 16.8185L4.18133 17.5314L4.288 18.5611L4.352 19.4323L4.39467 20.4884Z" fill="#7952B3"/>
<path fill-rule="evenodd" clip-rule="evenodd" d="M8.08533 6.41584V17.3729L8.10667 17.637L8.14933 17.8746L8.23467 18.1122L8.384 18.297L8.53333 18.4554L8.74667 18.6139L8.91733 18.6931H10.496H12.864L13.2693 18.6403L13.6747 18.5083L14.1653 18.2442L14.5493 17.9538L14.8907 17.6106L15.2533 17.1089L15.488 16.6337L15.68 16.2112L15.808 15.7096L15.872 15.2607V14.4422L15.8507 13.9934L15.7227 13.3861L15.488 12.7789L15.296 12.4356L15.0187 12.0132L15.36 11.5116L15.552 11.1683L15.68 10.8515L15.808 10.3762L15.8507 9.87459V8.81848L15.7653 8.31683L15.6373 7.81518L15.4667 7.41914L15.2533 6.9703L14.9973 6.57426L14.72 6.25743L14.3147 5.91419L13.9307 5.65017L13.5253 5.49175L13.0347 5.33333H9.04533L8.85333 5.35974L8.66133 5.46535L8.46933 5.62376L8.32 5.80858L8.192 6.0198L8.10667 6.28383L8.08533 6.41584ZM10.1973 16.0264V13.3597V13.3333H12.7787L13.0987 13.4653L13.3547 13.6766L13.5467 13.9142L13.6747 14.2046L13.76 14.5215V14.8911L13.696 15.2079L13.5253 15.5248L13.312 15.7888L13.056 15.9736L12.8213 16.0264H10.1973ZM10.2187 10.6403V7.9472H12.672L12.9067 7.9736L13.1627 8.10561L13.376 8.31683L13.5467 8.55446L13.6747 8.81848L13.76 9.13531V9.55776L13.632 9.92739L13.4613 10.2442L13.2693 10.4554L13.056 10.5875L12.7787 10.6403H10.2187Z" fill="#7952B3"/>
</svg>
