<svg width="24" height="24" viewBox="0 0 24 24" fill="none" xmlns="http://www.w3.org/2000/svg">
<rect width="24" height="24" fill="#F0DB4F"/>
<path fill-rule="evenodd" clip-rule="evenodd" d="M16.1235 18.7178L14.3014 19.7853L14.4302 20.0613L14.6327 20.3558L14.8167 20.5951L15.0744 20.8527L15.3873 21.1288L15.7185 21.3681L16.105 21.5889L16.4731 21.7546L16.8781 21.8834L17.5038 22.0307L18.0192 22.0675H18.7185L19.2155 22.0307L19.6388 21.9386L20.0989 21.8098L20.4854 21.6442L20.8719 21.4049L21.2216 21.1472L21.5713 20.7607L21.7369 20.4846L21.9026 20.1718L22.0314 19.7485L22.0866 19.3804V18.6442L22.0682 18.3681L22.0314 18.0736L21.9394 17.7791L21.829 17.5031L21.7001 17.2822L21.5529 17.0429L21.3872 16.8221L21.2032 16.638L20.9271 16.3988L20.7063 16.2331L20.4302 16.0491L20.1357 15.8834L19.6572 15.6442L19.2155 15.4417L18.8474 15.2761L18.3872 15.0736L18.056 14.9264L17.7615 14.7607L17.4854 14.5399L17.3014 14.319L17.2277 14.135L17.2093 13.9509V13.6748L17.2646 13.454L17.3566 13.2699L17.5038 13.0859L17.6695 12.9754L17.8903 12.865L18.056 12.8282H18.3688L18.6449 12.865L18.8842 12.9386L19.1234 13.0859L19.3259 13.2515L19.5099 13.4724L19.7308 13.8037L21.4793 12.6626L21.2216 12.2945L20.9639 11.9632L20.6511 11.6503L20.2645 11.3742L19.7308 11.0981L19.1971 10.9509L18.5897 10.8957H17.9823L17.4302 10.9509L17.0437 11.0429L16.6756 11.1902L16.2523 11.4294L15.8842 11.7055L15.5713 12.0368L15.3504 12.3497L15.2032 12.681L15.0376 13.1227L14.9823 13.5276V14.1534L15.0376 14.6135L15.1112 14.908L15.1848 15.1472L15.332 15.4417L15.5713 15.8282L15.9578 16.2331L16.4179 16.6012L17.0253 16.9509L18.7922 17.7423L19.1971 17.9448L19.5284 18.2024L19.7124 18.4049L19.8412 18.681L19.878 18.9202L19.8596 19.1963L19.7492 19.454L19.5468 19.7116L19.2155 19.9325L18.9026 20.0613L18.3136 20.1166L17.8167 20.0613L17.3934 19.9325L17.0069 19.7116L16.7124 19.4724L16.4179 19.1595L16.1235 18.7178ZM13.0314 11.0245H10.8596L10.8412 18.7914L10.786 19.1779L10.7124 19.4172L10.602 19.638L10.4179 19.8589L10.0498 20.0429L9.70013 20.0797L9.31363 20.0429L9.01915 19.9325L8.77988 19.7669L8.54062 19.5276L8.37498 19.2883L8.15412 18.9018L6.33203 20.0429L6.51608 20.3742L6.71853 20.6871L6.92099 20.9264L7.21547 21.2208L7.50995 21.4601L7.91485 21.6994L8.37498 21.8834L8.76148 21.9939L9.18479 22.0491H9.51608H10.2155L10.6756 21.9939L11.1173 21.8834L11.5222 21.6994L11.8167 21.5337L12.0744 21.3313L12.332 21.0736L12.5713 20.7423L12.7369 20.4478L12.8658 20.0981L12.9946 19.5828L13.0314 19.0859V11.0245Z" fill="#2B2B2B"/>
</svg>
