<svg width="24" height="24" viewBox="0 0 24 24" fill="none" xmlns="http://www.w3.org/2000/svg">
<rect width="24" height="24" fill="#4FA3F0"/>
<path d="M14.3008 19.7853L16.1229 18.7178L16.4173 19.1595L16.7118 19.4724L17.0063 19.7116L17.3928 19.9325L17.8161 20.0613L18.313 20.1166L18.902 20.0613L19.2149 19.9325L19.5462 19.7116L19.7486 19.454L19.8591 19.1963L19.8775 18.9202L19.8406 18.681L19.7118 18.4049L19.5278 18.2024L19.1965 17.9448L18.7916 17.7423L17.0247 16.9509L16.4173 16.6012L15.9572 16.2331L15.5707 15.8282L15.3315 15.4417L15.1842 15.1472L15.1106 14.908L15.037 14.6135L14.9818 14.1534V13.5276L15.037 13.1227L15.2026 12.681L15.3499 12.3497L15.5707 12.0368L15.8836 11.7055L16.2517 11.4294L16.675 11.1902L17.0431 11.0429L17.4296 10.9509L17.9818 10.8957H18.5891L19.1965 10.9509L19.7302 11.0981L20.264 11.3742L20.6505 11.6503L20.9633 11.9632L21.221 12.2945L21.4787 12.6626L19.7302 13.8037L19.5094 13.4724L19.3253 13.2515L19.1229 13.0859L18.8836 12.9386L18.6443 12.865L18.3683 12.8282H18.0554L17.8897 12.865L17.6689 12.9754L17.5032 13.0859L17.356 13.2699L17.264 13.454L17.2088 13.6748V13.9509L17.2272 14.135L17.3008 14.319L17.4848 14.5399L17.7609 14.7607L18.0554 14.9264L18.3867 15.0736L18.8468 15.2761L19.2149 15.4417L19.6566 15.6442L20.1351 15.8834L20.4296 16.0491L20.7057 16.2331L20.9265 16.3988L21.2026 16.638L21.3867 16.8221L21.5523 17.0429L21.6995 17.2822L21.8284 17.5031L21.9388 17.7791L22.0308 18.0736L22.0676 18.3681L22.086 18.6442V19.3804L22.0308 19.7485L21.902 20.1718L21.7364 20.4846L21.5707 20.7607L21.221 21.1472L20.8713 21.4049L20.4848 21.6442L20.0983 21.8098L19.6382 21.9386L19.2149 22.0307L18.718 22.0675H18.0186L17.5032 22.0307L16.8775 21.8834L16.4726 21.7546L16.1045 21.5889L15.718 21.3681L15.3867 21.1288L15.0738 20.8527L14.8161 20.5951L14.6321 20.3558L14.4296 20.0613L14.3008 19.7853Z" fill="white"/>
<path d="M13 11V13.5H10.5V22H8V13.5H5.5V11H13Z" fill="white"/>
</svg>
