<svg width="25" height="24" viewBox="0 0 25 24" fill="none" xmlns="http://www.w3.org/2000/svg">
<path d="M12.5898 2C11.2766 2 9.97626 2.25866 8.76301 2.7612C7.54975 3.26375 6.44736 4.00035 5.51878 4.92893C3.64341 6.8043 2.58984 9.34784 2.58984 12C2.58984 16.42 5.45984 20.17 9.42984 21.5C9.92984 21.58 10.0898 21.27 10.0898 21C10.0898 20.77 10.0898 20.14 10.0898 19.31C7.31984 19.91 6.72984 17.97 6.72984 17.97C6.26984 16.81 5.61984 16.5 5.61984 16.5C4.70984 15.88 5.68984 15.9 5.68984 15.9C6.68984 15.97 7.21984 16.93 7.21984 16.93C8.08984 18.45 9.55984 18 10.1298 17.76C10.2198 17.11 10.4798 16.67 10.7598 16.42C8.53984 16.17 6.20984 15.31 6.20984 11.5C6.20984 10.39 6.58984 9.5 7.23984 8.79C7.13984 8.54 6.78984 7.5 7.33984 6.15C7.33984 6.15 8.17984 5.88 10.0898 7.17C10.8798 6.95 11.7398 6.84 12.5898 6.84C13.4398 6.84 14.2998 6.95 15.0898 7.17C16.9998 5.88 17.8398 6.15 17.8398 6.15C18.3898 7.5 18.0398 8.54 17.9398 8.79C18.5898 9.5 18.9698 10.39 18.9698 11.5C18.9698 15.32 16.6298 16.16 14.3998 16.41C14.7598 16.72 15.0898 17.33 15.0898 18.26C15.0898 19.6 15.0898 20.68 15.0898 21C15.0898 21.27 15.2498 21.59 15.7598 21.5C19.7298 20.16 22.5898 16.42 22.5898 12C22.5898 10.6868 22.3312 9.38642 21.8286 8.17317C21.3261 6.95991 20.5895 5.85752 19.6609 4.92893C18.7323 4.00035 17.6299 3.26375 16.4167 2.7612C15.2034 2.25866 13.9031 2 12.5898 2V2Z" fill="#05DA5C"/>
</svg>
